<svg width="25" height="24" viewBox="0 0 25 24" fill="none" xmlns="http://www.w3.org/2000/svg">
<path d="M19.9345 14.8671C19.4431 14.3555 18.8505 14.082 18.2224 14.082C17.5993 14.082 17.0016 14.3504 16.49 14.862L14.8894 16.4576C14.7577 16.3867 14.626 16.3209 14.4993 16.255C14.317 16.1638 14.1448 16.0777 13.9979 15.9866C12.4985 15.0343 11.1359 13.7933 9.82908 12.1875C9.19591 11.3872 8.77042 10.7135 8.46143 10.0297C8.87679 9.64979 9.26176 9.25469 9.6366 8.87479C9.77843 8.73296 9.92026 8.58606 10.0621 8.44423C11.1258 7.38051 11.1258 6.00273 10.0621 4.939L8.67924 3.55616C8.52222 3.39913 8.36012 3.23704 8.20816 3.07495C7.90424 2.7609 7.58512 2.43671 7.25588 2.13279C6.76454 1.64652 6.17695 1.38818 5.55898 1.38818C4.941 1.38818 4.34329 1.64652 3.83676 2.13279C3.83169 2.13786 3.83169 2.13786 3.82663 2.14292L2.1044 3.88034C1.45604 4.52871 1.08626 5.3189 1.00522 6.23574C0.88365 7.71482 1.31927 9.0926 1.65358 9.99423C2.47417 12.2078 3.69999 14.2593 5.52859 16.4576C7.74722 19.1068 10.4167 21.1988 13.466 22.6728C14.631 23.225 16.1861 23.8784 17.9235 23.9898C18.0299 23.9949 18.1413 24 18.2426 24C19.4127 24 20.3954 23.5795 21.1654 22.7438C21.1704 22.7336 21.1806 22.7286 21.1856 22.7184C21.449 22.3993 21.7529 22.1106 22.0721 21.8016C22.2899 21.5939 22.5127 21.3761 22.7306 21.1482C23.232 20.6264 23.4954 20.0186 23.4954 19.3955C23.4954 18.7674 23.227 18.1647 22.7154 17.6581L19.9345 14.8671ZM21.7479 20.2009C21.7428 20.2009 21.7428 20.206 21.7479 20.2009C21.5503 20.4137 21.3477 20.6062 21.1299 20.8189C20.8007 21.133 20.4663 21.4622 20.1523 21.832C19.6407 22.379 19.0379 22.6374 18.2477 22.6374C18.1717 22.6374 18.0907 22.6374 18.0147 22.6323C16.5103 22.5361 15.1123 21.9485 14.0637 21.447C11.1967 20.0591 8.67924 18.0887 6.58725 15.5915C4.85996 13.5096 3.70506 11.5848 2.94019 9.51809C2.46911 8.25681 2.29689 7.27413 2.37287 6.34717C2.42352 5.75453 2.65146 5.26319 3.07189 4.84276L4.79917 3.11547C5.04738 2.88247 5.31078 2.75583 5.56911 2.75583C5.88823 2.75583 6.14656 2.94832 6.30865 3.11041C6.31372 3.11547 6.31878 3.12054 6.32385 3.1256C6.63284 3.41433 6.92663 3.71319 7.23561 4.0323C7.39264 4.19439 7.55473 4.35649 7.71682 4.52364L9.09967 5.90649C9.6366 6.44342 9.6366 6.93982 9.09967 7.47675C8.95277 7.62364 8.81094 7.77054 8.66405 7.91237C8.23856 8.34799 7.83333 8.75322 7.39264 9.14832C7.38251 9.15845 7.37238 9.16351 7.36731 9.17365C6.93169 9.60927 7.01274 10.0348 7.10391 10.3235C7.10898 10.3387 7.11405 10.3539 7.11911 10.3691C7.47875 11.2403 7.98529 12.0609 8.75522 13.0385L8.76029 13.0436C10.1583 14.7658 11.6323 16.1081 13.2583 17.1364C13.466 17.2681 13.6788 17.3745 13.8814 17.4758C14.0637 17.5669 14.2359 17.6531 14.3828 17.7442C14.4031 17.7544 14.4234 17.7696 14.4436 17.7797C14.6158 17.8658 14.7779 17.9063 14.9451 17.9063C15.3655 17.9063 15.6289 17.6429 15.715 17.5568L17.4474 15.8245C17.6196 15.6522 17.8931 15.4446 18.2123 15.4446C18.5263 15.4446 18.7846 15.6421 18.9417 15.8143C18.9467 15.8194 18.9467 15.8194 18.9518 15.8245L21.7428 18.6155C22.2645 19.1321 22.2645 19.664 21.7479 20.2009Z" fill="#DEDEDE"/>
<path d="M13.9379 5.70896C15.265 5.93183 16.4706 6.55994 17.433 7.52236C18.3954 8.48478 19.0184 9.69033 19.2464 11.0175C19.3021 11.3518 19.5908 11.5848 19.9201 11.5848C19.9606 11.5848 19.996 11.5797 20.0366 11.5746C20.4114 11.5139 20.6596 11.1593 20.5988 10.7845C20.3253 9.17873 19.5655 7.71484 18.4055 6.55487C17.2456 5.39491 15.7817 4.6351 14.1759 4.36157C13.8011 4.30079 13.4516 4.54899 13.3858 4.91876C13.3199 5.28853 13.563 5.64817 13.9379 5.70896Z" fill="#DEDEDE"/>
<path d="M24.9372 10.5869C24.4863 7.94278 23.2403 5.53674 21.3256 3.62203C19.4109 1.70732 17.0048 0.461242 14.3607 0.0104253C13.9909 -0.0554244 13.6414 0.197844 13.5756 0.567615C13.5148 0.942452 13.763 1.29196 14.1378 1.35781C16.4983 1.75798 18.651 2.87742 20.3631 4.58445C22.0752 6.29654 23.1896 8.44932 23.5898 10.8098C23.6455 11.1441 23.9342 11.3771 24.2635 11.3771C24.304 11.3771 24.3395 11.372 24.38 11.367C24.7497 11.3112 25.003 10.9567 24.9372 10.5869Z" fill="#DEDEDE"/>
</svg>
