<svg width="25" height="25" viewBox="0 0 25 25" fill="none" xmlns="http://www.w3.org/2000/svg">
<path d="M0 0H25V25H0V0Z" fill="black"/>
<path fill-rule="evenodd" clip-rule="evenodd" d="M11.2233 14.0983C11.9965 14.6138 13.0035 14.6138 13.7767 14.0983C14.92 13.3359 17.0271 11.9312 19.0858 10.5587C21.0861 9.22522 23.0407 7.92215 24.0212 7.26836C24.6329 6.86067 24.9999 6.17462 24.9999 5.43989V5.43867C24.9999 4.16807 23.9698 3.13809 22.6993 3.13809H2.30072C1.03014 3.13809 3.42261e-05 4.16806 3.42261e-05 5.43867V5.43989C3.42261e-05 6.17467 0.367189 6.8607 0.978857 7.26836C1.98866 7.9417 4.0303 9.30279 6.09134 10.6768C8.09271 12.0111 10.1124 13.3575 11.2233 14.0983ZM12.9641 12.8795C12.683 13.0669 12.317 13.0669 12.0359 12.8795C10.9246 12.1385 8.9052 10.7922 6.90411 9.45814C4.84319 8.08419 2.80168 6.72319 1.79152 6.04961L1.79131 6.04947C1.58719 5.91346 1.46488 5.68482 1.46488 5.43989V5.43867C1.46488 4.97716 1.83907 4.60293 2.30072 4.60293H22.6993C23.1609 4.60293 23.5351 4.97714 23.5351 5.43867V5.43989C23.5351 5.68487 23.4128 5.91349 23.2087 6.04947L23.2085 6.04961C22.2282 6.7033 20.2778 8.00354 18.2807 9.33494C16.2202 10.7086 14.11 12.1154 12.9641 12.8795Z" fill="#F3F3F3"/>
<path fill-rule="evenodd" clip-rule="evenodd" d="M2.30146 20.3971C2.07945 20.3971 1.86705 20.3091 1.71043 20.1522L1.70974 20.1516C1.55292 19.9949 1.46489 19.7825 1.46489 19.5605V5.43947C1.46489 5.03497 1.13698 4.70705 0.732471 4.70705C0.327965 4.70705 4.88944e-05 5.03497 4.88944e-05 5.43947V19.5605C4.88944e-05 20.1707 0.242166 20.756 0.674287 21.1877C1.10602 21.6198 1.69132 21.8619 2.30146 21.8619H22.6985C23.3085 21.8619 23.8937 21.6199 24.3254 21.188C24.7577 20.7563 25 20.1708 25 19.5605V5.43947C25 5.03497 24.672 4.70705 24.2675 4.70705C23.863 4.70705 23.5351 5.03497 23.5351 5.43947V19.5605C23.5351 19.7825 23.4471 19.9949 23.2903 20.1516L23.2896 20.1522C23.133 20.3091 22.9205 20.3971 22.6985 20.3971H2.30146Z" fill="#F3F3F3"/>
</svg>
